<svg id="Capa_1" enable-background="new 0 0 511.962 511.962" height="512" viewBox="0 0 511.962 511.962" width="512" xmlns="http://www.w3.org/2000/svg" xmlns:xlink="http://www.w3.org/1999/xlink"><linearGradient id="SVGID_1_" gradientUnits="userSpaceOnUse" x1="255.981" x2="255.981" y1="511.962" y2="0"><stop offset="0" stop-color="#009efd"/><stop offset="1" stop-color="#2af598"/></linearGradient><g><g><path d="m251.962 160c-11.046 0-20 8.954-20 20s8.954 20 20 20 20-8.954 20-20-8.955-20-20-20zm160 0c-11.046 0-20 8.954-20 20s8.954 20 20 20 20-8.954 20-20-8.955-20-20-20zm-80-160c-99.252 0-180 80.748-180 180 0 42.436 14.77 81.482 39.428 112.288l-35.997 35.996-28.284-28.284-109.564 109.563c-23.393 23.395-23.393 61.459.001 84.853 23.391 23.391 61.455 23.396 84.853 0l109.563-109.563-28.284-28.285 35.997-35.996c30.805 24.657 69.85 39.428 112.287 39.428 99.252 0 180-80.748 180-180s-80.748-180-180-180zm-257.848 466.132c-7.798 7.799-20.486 7.798-28.284 0-7.798-7.798-7.798-20.486 0-28.284l81.279-81.279 28.285 28.285zm257.848-146.132c-77.196 0-140-62.804-140-140s62.804-140 140-140 140 62.804 140 140-62.804 140-140 140zm0-160c-11.046 0-20 8.954-20 20s8.954 20 20 20 20-8.954 20-20-8.955-20-20-20z" fill="url(#SVGID_1_)"/></g></g></svg>